<svg xmlns="http://www.w3.org/2000/svg" viewBox="0 0 1920 979.45"><defs><style>.cls-1{fill:#fff;}.cls-2{font-size:129px;font-family:CenturyGothicPro, Century Gothic Pro;}</style></defs><g id="Ebene_1_Bild" data-name="Ebene 1 Bild"><path d="M53,922.32c-.58-1.53-2-3.4-1.53-4.53.68-1.72,3.11-4.41,4-4.13,11.31,3.46,21.09-1.17,30.12-6.41C102,897.73,119.2,890,136.71,883c5.61-2.24,12-2.47,18.13-3.54,4.35-.76,6.24-3.22,5.77-7.63-1-9.56-6.51-13-15.34-9.47l-16.84,6.7c-.31.13-.81.22-.87.43-2.08,6.78-7.74,3.94-12.22,5C107,876.39,99,879.54,90.8,882.11a24.52,24.52,0,0,1-5.57,1.2,36,36,0,0,1-8.86,0c-2-.36-4.61-1.66-5.23-3.22-.68-1.72.06-4.64,1.27-6.21.64-.84,4-.61,5.37.32,3.76,2.63,7,1.88,11,.44,9.74-3.51,19.85-6,29.59-9.48,5.71-2.06,10.88-5.55,16.46-8,10.36-4.56,21.1-9,32.39-4.58,3.36,1.32,6,6.12,7.61,9.91,3.91,9.34,2.86,12,15.58,7.69,3.78-1.27,7.38-3.15,11.21-4.2,2.55-.7,5.4-.25,8.07-.64,5.81-.87,11.58-1.93,17.37-2.94,2.5-.43,4.85-1,6.15,2.29,1.62,4,2.69,8.87,7.7,10a25.94,25.94,0,0,0,17.33-2.24c12.8-6.23,25.35-13.05,40-14.09a3.68,3.68,0,0,0,1-.25c11.35-4.32,22.6-9,34.1-12.85,6.42-2.17,13.28-3.07,19.94-4.52a9.65,9.65,0,0,0,2.41-.37c7.26-3.85,14.67-7.46,21.59-11.85,2.14-1.36,2.92-4.87,5-8.53-3.05-.19-5.33-1.06-6.71-.3-10.29,5.61-22,1.92-32.72,5.28-6.19,1.94-10.31-2.92-12.89-9.43,2.4-1.53,4.75-3.95,7.55-4.67q23.37-6,46.94-11.23c8.36-1.85,13.26-11.65,8.61-19-1.12-1.76-4.06-2.36-7.5-4.22,3.23-1.35,5.6-2.32,7.95-3.33,1.46-.62,3.5-.91,4.19-2a10,10,0,0,0,1.35-5.87c-.07-.72-2.59-1.37-4.06-1.78a12.23,12.23,0,0,0-3.48-.25c-3.79.06-4.93-2.73-5-5.52,0-1.9,1-4.75,2.42-5.61,6.55-3.85,13.6-6.86,20.15-10.71a168.09,168.09,0,0,0,17.91-12.08c5.77-4.47,12.86-3.88,16.95,2.1,2.53,3.68,4.84,7.58,7.82,10.85,1.16,1.26,4.05,1.77,5.92,1.41,7.58-1.42,15.08-3.3,22.6-5,1.59-.37,3.15-.89,4.72-1.34,6.35-1.84,11.69-4.8,12.67-12.15,1.05-7.94,7.24-11.17,13.08-14.88,7.38-4.69,14.8-9.33,21.86-14.47,3.4-2.49,5.67-6.49,9-9.07,8.43-6.51,17.51-12.2,25.7-19,8.79-7.25,19.5-9.35,29.85-12,7.05-1.8,14.71-1.7,22.08-1.52,4.43.11,7,3.82,7.06,8.25.1,4,2,6,5.57,7.07,4,1.23,4.47-2.2,5.51-4.24,3.73-7.31,9.76-11.86,16.79-15.64,6-3.25,11.68-7.24,17.63-10.66a43.65,43.65,0,0,1,7.7-3.06c6.45-2.21,11.2-6.7,16.34-11,6.68-5.55,14.34-9.92,21.66-14.67,4.42-2.87,8.88-5.71,13.55-8.15,2.55-1.33,5.87-1.28,8.31-2.75,6.43-3.88,12.65-8.13,18.8-12.45,11.08-7.8,22.24-15.52,33-23.74,7-5.35,16.25-7.62,21.34-15.56l1.54-2.49c-2.09-1.12-4.18-1.81-5.67-3.16-1.32-1.18-2.84-3.18-2.69-4.66s2.15-3.4,3.66-3.74c11.09-2.55,20.27-8.67,29.29-15.11,16.76-12,33.64-23.76,50.07-36.15,4.4-3.32,8-8.19,10.8-13,2.47-4.23,6-7,10-6.49,8.42,1.17,14-3.08,17.12-9.22,4.45-8.74,12.77-12.71,19.3-18.85,2.87-2.71,5.69-5.5,8.8-7.91,4.15-3.2,8.49-6.16,12.87-9.06,3-2,4.63-4.18,4.28-8.18-.48-5.45-.75-12.06,4.59-14.88,5.77-3,10.44-9.67,18.57-7.4.69,2.73,1.37,5.6,2.14,8.44,1.33,4.91,3.71,6.48,8.4,4.57,5.72-2.32,11.1-5.45,16.75-7.94,4-1.75,7.33.11,8.09,3.29-4.31,2.31-8.5,4.37-12.51,6.74-5.46,3.22-10.52,7-17.36,7.23-2.4.07-4.8,1.77-7.11,2.89-7,3.37-14.1,6.45-20.74,10.39-3.84,2.29-6.59,6.34-10.27,9-5.24,3.78-11.18,6.63-16.21,10.64-1.85,1.46-2.52,5.09-2.6,7.76,0,1.16,2.61,3,4.33,3.49,4,1.11,7.37,0,10.76-3,6.46-5.87,13.07-12,20.63-16.14,7-3.9,14-8.34,22.52-9.74,6.7-1.11,12.83-5.44,19.53-6.76,11.35-2.24,19-10.66,28.69-15.49,4.57-2.26,9.28-4.23,13.93-6.31,7.79-3.49,10.69-8.53,9.71-16.91-.57-5-8.78-7.15-13.82-3.91a74.81,74.81,0,0,1-12.38,6.83c-1.61.65-4.38-.57-6.08-1.73-.54-.37.53-3.33,1.09-5,.78-2.33,2.48-4.58,2.48-6.87,0-2-1.24-5-2.87-5.92a11,11,0,0,0-12.64.66,98.11,98.11,0,0,1-11.64,7.55c-1.56.84-3.88.24-5.85.29.37-2.26.11-4.93,1.26-6.68,1.68-2.58,4.86-4.18,6.54-6.76,3.67-5.59,6.75-11.57,10.16-17.34,1.46-2.48,8.1-4.09,10.77-3,3.46,1.36,6.95,2.88,10.57,3.52s5.47-1.72,6.23-5.4a54.82,54.82,0,0,1,3.49-10c1.65-3.93,3.93-7.62,5.27-11.64,1.17-3.48,3-5.62,6.47-6.82,1.68-.58,3.72-2.05,4.27-3.59a73.09,73.09,0,0,0,3.75-14.28c.19-1.26-2.19-3.7-3.85-4.28a28.37,28.37,0,0,1-13.65-10.46c-2.34-3.16-4.39-6.39-3.51-10.3.81-3.65-.93-5.41-3.37-7.44-7.8-6.52-7.31-12.9,1.52-18,4.44-2.55,6.73-6.12,6.14-11-1.08-8.82,2.76-15.58,8.74-21.15,6.23-5.81,8.2-13.17,10.07-21a173,173,0,0,1,8.14-26.46,153.08,153.08,0,0,1,13.4-24.73,24.64,24.64,0,0,1,10.82-8.8c6.62-2.65,9.51-4.69,7.21-11.49-3.41-10.09-.59-19.75-.11-29.57.29-6,3-8.23,8.81-6.94a76,76,0,0,1,14.38,5.24c3.9,1.76,6.84,1.78,10.35-1.24,9.69-8.31,20.08-9.93,31.51-2.8,7.74,4.83,9.66,4.12,16.87-1.57,8.59-6.78,17.38-13.3,26.12-19.89a6.38,6.38,0,0,1,3.09-1.48c1.81-.09,4.12-.24,5.3.74.77.64.56,3.7-.31,4.87A134.53,134.53,0,0,1,1227,75.35c-6.38,6.59-4.15,16.28,4.76,19.27s15.87-1.73,17.9-10.88c1-4.52,3.39-8.85,5.86-12.83.82-1.32,3.85-1.27,5.87-1.84.18,2.08,1.17,4.54.41,6.18-4.66,10-9.07,20.16-14.81,29.5-6.81,11.09-10.6,23-13.6,35.45-2.2,9.1-7.09,17.75-8.09,26.9-1.49,13.53-.5,27.33-.78,41a53.89,53.89,0,0,1-1.5,11.52c-2.71,11.1.52,17.7,10.53,17.52,3,0,6.2-2.58,8.85-4.58s4.49-4.9,7-7c3.41-2.92,6.57-2.4,9.38,1.24,4.22,5.49,8.69,10.79,12.91,16.28,3.22,4.18,4.67,8.47,1.69,13.75-6,10.63-4.16,22.67,3.68,32.14,4.65,5.62,6.53,12.65,4.08,19.6-2.36,6.72-1.19,12.92-.19,19.5a172.18,172.18,0,0,1,1.42,20.7,4.46,4.46,0,0,1-2.7,3.41c-1,.2-3.05-1.28-3.5-2.46-.75-1.91-.53-4.18-.79-6.29-.53-4.25-.4-8.76-1.9-12.63-1.11-2.86-4.33-6.75-6.69-6.8-3.22-.07-7.77,2.26-9.53,5-4.55,7.06-9.49,14-8.3,23.69.94,7.68-1.9,9.71-9.83,10.78-4.91.66-9.83,1.36-14.75,2a7,7,0,0,1-3.45-.16c-7.24-3.17-14.66-3.39-22.45-2.71-5.67.5-11.47-.73-17.23-.92a13.26,13.26,0,0,0-5.21,1.27c-5.88,2.44-10.75.21-12.36-5.71-1.66-6.07-5.4-9.13-11.77-11.07-11.63-3.55-21.06,1.92-30.1,6.55-11.87,6.08-22.59,14.41-33.76,21.85a13.87,13.87,0,0,0-3.59,3.41c-3.09,4.36-.92,9.09,4.34,9.68,6.85.77,13.2.34,19.5-3.53a115.43,115.43,0,0,1,23.78-11.58c4-1.33,9.74.09,13.91,2,5.92,2.71,10.91,7.39,16.71,10.44,2.88,1.51,6.73,1.08,10.06,1.88,2,.5,5.54,1.59,5.6,2.57a17.72,17.72,0,0,1-2,8.09c-.62,1.31-2.65,1.91-3.92,3-4.8,4.07-9.76,8-14.28,12.36-6.64,6.39-5.12,15-6.1,23.34-4.88,3.44-10.78,4.09-17.08,3.56-4.23-.35-6.81,1.77-9.45,5.58-3.64,5.26-8.8,9.65-13.89,13.7a185.57,185.57,0,0,1-20.35,14.19c-6.81,4.07-14.24,7.09-21.27,10.81-5.55,2.94-10.8,6.45-16.37,9.35-6.34,3.3-13.12,5.83-19.3,9.4s-11.71,8.56-18,12c-11.25,6.23-23.08,11.43-34.26,17.76-10.69,6.06-20.9,13-31.27,19.59-3.64,2.32-7,5.11-10.76,7.18-1.34.74-3.72.49-5.25-.16-6.4-2.73-9.12-2.15-10.16,4.26-.88,5.33-3.33,11.17,1.44,16.42,3.78,4.15,16,5.9,18.52,1.22,6.19-11.46,17.94-15.82,27.37-23,8-6.1,17.24-10.63,26-15.67,5.67-3.24,11.83-5.7,17.24-9.3,8.44-5.62,17.42-9.79,26.77-13.66,4.56-1.88,7.41-7.61,11.45-11.12a144.61,144.61,0,0,1,14.34-10.89c5.92-4,12.1-7.54,18.24-11.17,7.56-4.48,15.37-8.59,22.76-13.35,7.14-4.6,13.88-9.85,20.83-14.77a42.71,42.71,0,0,1,3.7-2.14c2.25,8.92-1.23,11.71-8.08,16.07-14.19,9-28.77,17.5-43.08,26.35a235.07,235.07,0,0,0-19.67,13.12c-4.42,3.39-7.8,8.12-12.1,11.72-3.27,2.75-7.23,4.66-11.83,7.53,0,.49.1,2.38.19,4.67-7.43,7.13-15.19,14.62-23,22.05-1.06,1-2.39,1.73-3.55,2.65-7.51,6-14.45,12.91-22.65,17.71-9.94,5.81-18.09,14.45-29.73,17.73-6.43,1.81-12.1,6.18-18.34,8.88-3.49,1.51-7.49,1.78-11.16,2.92-2.52.79-5.93,1.43-7.11,3.3-8,12.67-20.81,18.37-33.65,24.12a21.54,21.54,0,0,0-3.42,1.74c-10.15,7.08-20.34,14.24-32.26,18-8,2.49-16.29,4-24.51,5.66-5.49,1.13-8.1,5.33-10.93,9.41-1.87,2.7-3.76,5.39-6.49,9.3-2.8-4.21-5.6-6.87-6.39-10-.84-3.41-1.56-5.55-5.43-5.51s-7.4.65-9.46,4.71-4.58,8.13-7,12.1c-.55.89-1.69,1.39-2.49,2.15-2.16,2-4.27,4.14-6.4,6.21l.83,1.38c-7.46-.46-14.92-1.11-22.38-1.25-1.73,0-5,1.62-5,2.56-.16,5.9-5.14,6.53-8.57,7.24a112.72,112.72,0,0,1-22.07,2.32c-9.88.07-17.71,5-25.91,9.27-8.67,4.5-16.22,11.23-27.31,10.41-3.78-.28-8.24,3.21-11.76,5.83-9.17,6.82-19.91,9-30.66,11.29-9.12,2-18,3.94-25.69,10.16-3.59,2.92-8.89,4.43-13.61,5.06s-8.67,2.29-10.86,5.9c-3.9,6.45-10.2,9.06-16.32,12.22-5.47,2.82-10.64,6.32-16.33,8.55-11.1,4.35-18.65,13.92-29.05,19.1-7.35,3.65-15.28,6.14-22.63,9.8-7.9,3.94-17.25,3.87-24.59,9.47-1.56,1.18-5,.8-7.19.07-3.74-1.23-6.85-1.21-10.25,1-6.87,4.47-13.93,8.62-20.92,12.9-2.53,1.54-5.21,2.87-7.57,4.63-9.95,7.47-21.85,7.1-33.31,8.36-9.12,1-18.43.83-27.39,2.58-10,2-19.77,5.53-29.66,8.3a43,43,0,0,1-6.67,1.22c-3.16.36-6.71-.37-7.76,4.19-.21.9-1.89,1.76-3.05,2.1-7.86,2.27-15.84,4.18-23.65,6.63-9.68,3-19.2,6.56-28.84,9.67-4.09,1.33-8.41,3.2-12.51,2.95-6.55-.39-11.63-4-13.79-10.81-.31-1-2.23-2.35-3.05-2.14-13.15,3.33-26.24,6.91-39.36,10.36a15.36,15.36,0,0,1-4.86.5c-6.16-.42-11.59,1.73-17.07,4.14-3.4,1.5-7.16,2.15-10.71,3.32-11.15,3.66-22.57,6.68-33.33,11.26-15,6.39-29.49,14.13-44.36,20.92-3.43,1.56-7.55,1.62-11.37,2.28-1.7.3-3.44.4-5.17.59ZM718.78,631.06c.14.45.28.9.41,1.35,7.22-2.46,14.42-5,21.67-7.36,5-1.65,10.08-3.94,15.26-4.37,4.17-.35,6.24-2.12,8.13-5.18,5.53-9,9.18-19.13,17.76-26.12,2.55-2.07,2.34-5.53-.36-7.82-3.46-2.92-10.76-.74-13.34,3.14a93.49,93.49,0,0,1-8.41,10.18,53.47,53.47,0,0,1-4.63,4.11c-5.47,4.87-10.8,9.42-19,9.48-3.56,0-7.93,2.42-10.38,5.14-2.1,2.32-3.52,4.3-6.85,4.56s-7.8,5-7.34,7.58C712.34,629.53,714.8,631.41,718.78,631.06ZM566.33,714.14l-.24-.83c-5.44,1.32-10.87,2.69-16.33,3.94-3.24.74-6.53,1.72-9.81,1.8-3,.07-5,.57-7,3.29-6.48,8.82-13.8,16.79-24.35,21.13-2.85,1.17-5.17,3.65-7.74,5.53,4.54.29,8.45-.71,12.43-1.25,8.67-1.16,15.05-7,22.5-10.69a52.33,52.33,0,0,0,9.37-5.53C552.36,725.9,559.29,720,566.33,714.14ZM563.07,756a11.53,11.53,0,0,0,2.12-1.6c4.33-5.56,8.83-10.07,17-9.86,5.76.14,13.92-6.47,15.62-10.64C578.09,732.06,566.33,740.57,563.07,756Zm256.8-189.75c20.92-3.58,28.83-8.2,33-23.13-2.82,2-4.83,3.36-6.68,4.86-2.89,2.34-5.38,5.35-8.58,7.08a48.84,48.84,0,0,1-13.53,5.18C820.31,561,819.71,562.71,819.87,566.27ZM838,631.34a56.89,56.89,0,0,0,6-2.13q8.29-4.1,16.45-8.44c.87-.46,2.11-1.78,2-2.34-.48-1.6-1.3-3.89-2.53-4.3-1.81-.61-4.6-.57-6.07.48C847.72,618.89,840.4,622,838,631.34Zm50.07-119c2.37.15,3.08.38,3.66.2,8.62-2.69,16.31-6.83,21.39-14.63.81-1.24.77-3,1.12-4.55-1.55.5-3.31.7-4.64,1.56-6,3.91-12,7.91-17.85,12.12C890.35,508.08,889.65,510,888,512.39ZM423.53,810a4.44,4.44,0,0,0-1.22-1.71c-4.51-2.77-15.31,1.87-15.7,6.95-.1,1.24,1.94,3.26,3.41,3.81a6.93,6.93,0,0,0,5.17-.62C418.55,816.58,423.23,815.9,423.53,810ZM906.47,478l10.62-6.38C908.9,469.72,908.37,470,906.47,478Z"/><path d="M1345.25,517.24c2.63-.74,5.31-1.37,7.9-2.24,11.77-4,25.81.47,28.72,13.89,2.71,12.55,7.63,24.19,16,34.28,1.6,1.93,1.88,5.47,1.74,8.21-.37,6.76-1.07,13,3.46,19.31,4.16,5.77,2.24,12.68-.73,18.89-.84,1.77-1.84,3.47-2.6,5.27-3.27,7.74-6.26,8.95-14.29,5.91a24.18,24.18,0,0,0-4.8-.79c-.09,2.19-1,4.83-.12,6.49a110.35,110.35,0,0,0,10.26,16.3c6.27,7.92,5.84,21.48-1.45,28.71a122.75,122.75,0,0,0-8.43,9.24c-.41.51.2,2.38.87,3.17,3.94,4.69,8.66,8.87,11.93,14,4,6.18,4.83,13.42,1.59,20.28-1,2.12-4.37,4.81-6.19,4.51-3.45-.57-3.4-4-2.68-7.29a32,32,0,0,0,.59-9.9c-.63-6.08-5.33-8.2-10.36-4.72-3.92,2.71-7.37,6.14-11.3,8.84-3.48,2.39-7.15,4.84-11.11,6.06-2.4.74-5.67-.4-8.24-1.45-2.39-1-4.17-3.51-6.57-4.35a9.34,9.34,0,0,0-6.81.23c-3.88,2.11-7.31,5.06-10.89,7.73-5.56,4.14-11.29,4.17-18,0-4.91-3-7.12-8.66-5.89-14.93.22-1.14.31-2.31.56-3.44,1.43-6.33,9-10.65,14.83-8.1,1.53.67,3.33,2.94,3.28,4.43s-2.16,4-3.55,4.11c-7.18.65-3.62,4.76-3.31,7.68,4.52-2.06,8.82-4.08,13.18-6a8.35,8.35,0,0,1,2.85-.23c7.2-.26,8.93-2.38,7.66-9.43-1.93-10.73,3.57-15.49,14.25-12.86a176.83,176.83,0,0,0,20.12,3.43,4.63,4.63,0,0,0,3.72-2.56,15.34,15.34,0,0,1,7.22-9.94c5-3.24,8.22-7.88,7.09-14.51-.91-5.34-2.71-6.39-7.81-4.65s-10.09,2.9-15.12,4.42c-2.89.87-4.42-.25-4-3.09,1.75-10.56.61-21.89,8.59-30.82,2-2.26,3.23-5.37,4.34-8.26.49-1.29.41-3.62-.43-4.46-5.79-5.76-4.37-9.3,1-17.1.62-.91,1.11-1.91,1.94-3.33-5.85-1.83-11-2.05-15.87,1.35a64.71,64.71,0,0,0-8.22,6.38c-1,1-1.36,3.1-1.33,4.69.09,3.86,1.07,7.75.8,11.56-.54,7.75-6.35,11.37-12.55,14.42-10,4.95-20.15,9.77-30.1,14.89-2.87,1.48-5.15,4.09-8,5.72-4,2.34-8.32,4.29-12.53,6.36-2.38,1.16-5,2-7.19,3.39-2.63,1.69-4.92,1-5.75-1.33-.51-1.42.65-4.17,1.94-5.33,1.88-1.69,4.6-2.41,6.9-3.64,10.07-5.38,20.09-10.84,30.19-16.16,8.27-4.36,16.66-8.51,24.93-12.85,4.39-2.31,5.61-9,1.81-11.94-1.3-1-4.66-.3-6.51.68-4.65,2.48-8.7,6.2-13.48,8.29-21.65,9.48-44.43,15.53-67.1,22-13.62,3.9-26.68,9.72-40.08,14.43-5,1.74-10.27,2.5-15.28,4.16-8.17,2.71-16.2,5.87-24.34,8.71-10.89,3.79-22.17,2.87-33.43,3-7.12.06-14.24,1.6-21.32,2.74-.94.15-1.55,1.94-2.44,2.85-1.54,1.6-3.94,4.7-4.63,4.37a20.21,20.21,0,0,1-7.26-5.9c-.67-.9.52-4.11,1.78-5.33,2-2,4.68-4.12,7.37-4.63,7.62-1.45,15.38-2.9,23.09-2.92,12.41,0,24.46-1,35.28-7.62,14.11-8.67,29.93-13.28,45-19.71,12.95-5.53,25.16-12.73,37.88-18.83,3.46-1.65,7.56-2,11.38-2.89,1.55-.36,3.3-.23,4.68-.9,6.84-3.31,14-6.18,20.29-10.39,10.71-7.21,20.78-15.37,31.22-23,3.49-2.55,3.66-6.2,3.56-9.75-.22-7.86,1.23-14.84,8.19-19.63a4.16,4.16,0,0,0,1.35-1.45c1.47-3,2.85-6,4.26-9-2.73-1.26-5.43-3.52-8.19-3.59-7.36-.19-10.21-5.95-14.14-10.34-.49-.56.47-3.54,1.51-4.18,5.55-3.43,11.34-6.48,17-9.64.71-.39,1.53-.61,2.21-1,3.19-2,7.95-2.71,7.07-8.24-1-6.67-3.66-9.13-10.2-10.92-6-1.63-12-3.32-17.47-6.09-2.6-1.32-4.6-5-5.63-8-1.31-3.81-2.92-4.58-6-2.39a67.52,67.52,0,0,0-8,6.21c-7.15,6.89-16.61,7.91-25.5,10.43-4.11,1.16-8.4,1.9-12.28,3.59-10.07,4.4-20,9.15-29.89,13.94-2.59,1.25-4.48,1.84-6.21-1.21s.75-4.6,2.51-5.49c15.26-7.72,30.24-16,47.35-19.55,9.72-2,18-6.8,26.18-13.5,8.91-7.34,7.59-13.58,4.73-22.19s-4.21-17.6-6.93-26.21a190.33,190.33,0,0,0-8.32-20.47c-1.79-4-4.29-7.68-6.24-11.61a3.25,3.25,0,0,1,.53-3c1-.84,2.69-1.65,3.79-1.35a6.57,6.57,0,0,1,3.8,2.92c3.9,7.62,7.18,15.59,11.36,23.05,5.67,10.12,4.72,21.74,8.17,32.26,2.29,6.94,6,13.43,9.41,20,2.22,4.3,4.3,8.15,2.85,13.53-1.28,4.74,3.6,5.39,6.72,5.59a30.15,30.15,0,0,1,17.82,7.19c5.31,4.37,8.73,14.53,6.28,20.73-.72,1.83-2.42,3.31-3.79,4.85-1.67,1.87-3.46,3.64-5.19,5.45Z"/><path d="M790.53,697.82,795,688.2c5.13-2.28,9.22-.9,12,4.89,1.4,2.89,2.36,6,4,8.78,2.56,4.43,13,6.4,17.32,3.22,6.36-4.71,12.36-9.88,18.8-14.47,3.65-2.6,7.93-4.3,11.79-6.63a46.5,46.5,0,0,0,6.38-4.83c7.86-6.84,15.64-13.76,23.46-20.64.25-.21.52-.54.8-.56,11-.93,17.87-9.86,27-14.37,6.77-3.33,13.08-7.63,19.42-11.77a47.55,47.55,0,0,0,8.16-6.83A60,60,0,0,1,963,612c9-4.1,18.44-4.85,27.87-6.4,10.27-1.69,17.18-7.53,21.19-17.26,3.29-8,8.5-14,17.56-16.35,7.69-2,15-5.4,22.59-7.86,6.79-2.2,13.67-4.13,20.59-5.86,8-2,16.07-3.78,24.16-5.42,9.91-2,19.87-3.78,29.8-5.69a48.7,48.7,0,0,0,4.72-1.2c8.67-2.62,17.22-5.79,26-7.75,10.39-2.32,20.74-.09,30.53,3.4a93.75,93.75,0,0,0,31,5.16c2.45,0,4.91-1.28,7.39-2,1.07-4-.24-7.13-4.06-8.38-4.93-1.6-9.48-3.56-15.26-3.59-8.88-.05-18.15-1.62-26-7.15-2.29-1.61-5.35-2.27-8.15-3-11.3-2.94-22.5-5.23-34-.15-7.41,3.26-15.3,5.46-23.07,7.86-2.27.7-5.09,1.19-7.22.47-4.53-1.54-7.8.85-11.58,2.23-2.08.76-4.61.27-6.93.35.23-2.42-.49-5.84.84-7.09a205.37,205.37,0,0,1,19.53-16.44c10-7.31,18.39-16.14,26.83-25.06,5-5.25,10.67-9.82,16.27-14.41,7.16-5.85,14.42-11.61,21.9-17.05,7.65-5.57,16.18-10.08,23.22-16.3,4-3.53,6.56-9.3,8.4-14.54,2.25-6.41,6.58-11.25,12.14-13.1,8.47-2.8,14.75-8.42,21.82-13.1,2.69-1.79,5.44-3.49,8.57-5.49,4.5,12.56,13.29,4.08,20,4.94,1.24,9.14,1.13,9.4-6.68,13.87-6.28,3.6-12.84,6.78-18.84,10.79-5.3,3.54-9.78,8.3-15,11.95-6.06,4.22-12.46,8-18.9,11.66-6.14,3.47-12.83,6-18.7,9.88-12.78,8.36-25.51,16.86-37.63,26.13-6.45,4.94-11.6,11.59-17.29,17.51-5.39,5.6-10.82,11.17-16,17-1.17,1.31-1.41,3.46-2.07,5.22a44.59,44.59,0,0,0,4.76-.47c11.43-2.36,22.28-8.14,34.23-7.08,6.32.56,12.51,3,18.68,4.9,7.95,2.39,15.75,5.24,23.74,7.48,7.65,2.13,16,2.17,22.55,7.44a59.57,59.57,0,0,1,5.86,5.92,25.08,25.08,0,0,1,1.89,2.63c1.22,1.7,3.8,3.93,3.39,5-.93,2.36-3,5.37-5.22,5.91-6.36,1.55-13.08,3.17-19.47,2.63-8.61-.74-17.14-3.13-25.53-5.43a65.94,65.94,0,0,0-34.21-.24c-13.38,3.37-26.75,6.82-40.21,9.82-8.4,1.88-17,2.75-25.46,4.55-8.74,1.87-17.45,4-26,6.61-8.23,2.53-16.22,5.84-24.3,8.86-7.09,2.65-12.12,6.65-15.13,14.47-3.26,8.45-9.4,15.55-19.29,17.85-8.49,2-17.08,3.74-25.31,6.54-6.12,2.09-12.94,4.47-17.31,8.85-10,10-22.61,15.65-34.29,22.85-6,3.71-12,7.51-18.09,11.07-9.22,5.38-18.75,10.23-26.31,18-2.07,2.13-4.83,3.68-6.56,6-6.2,8.37-16.7,10.53-24.16,17.26-5.86,5.29-13.07,9.27-20.11,13-5.9,3.15-12.33.82-16.79-4-2.76-3-5.44-5.94-10.56-6.29C796.07,703.75,793.09,699.74,790.53,697.82Z"/><path d="M1464.83,575.72c-3,1.64-6.21,2.46-7.27-1.61-.94-3.6,1.93-5.75,5-6.23,10-1.55,20-2.62,30-4,4-.54,7.94-1.29,13.08-2.14-5.74-10.45-10.68-19.4-15.58-28.37-3.5-6.42-7-12.82-10.31-19.36-.43-.86.33-2.95,1.2-3.66a4,4,0,0,1,3.75-.19,12.21,12.21,0,0,1,3.57,4.1c8.5,15.05,16.87,30.18,25.44,45.2.66,1.16,2.51,1.88,3.95,2.35,10.13,3.29,20.22,6.7,30.46,9.58,12.39,3.49,24.56,7.81,37.65,8.57,8.73.5,17.38,2.18,26.06,3.36,10.42,1.42,21,2.36,31-1.36,5.69-2.13,10.6-6.37,15.83-9.7,4.72-3,9.39-6.1,14.11-9.11,3.87-2.47,8-4.62,11.63-7.39,4.19-3.19,4.42-10.2.63-14-7.34-7.45-14.56-15.06-22.32-22-9.71-8.73-20-16.8-29.86-25.39a25,25,0,0,1-5.66-7.79c-.54-1.1.47-4,1.58-4.61,1.45-.8,4.46-1,5.49,0,7.68,7.22,14.74,15.1,22.56,22.15,8.06,7.26,16.78,13.78,25.15,20.7,6.8,5.61,12.11,12.69,14.33,21,2,7.57-2.4,14.12-8.24,18.88a66.71,66.71,0,0,1-13.75,8.52c-3.25,1.52-5.76,3.8-5.51,6.7.15,1.82,3.48,3.93,5.8,4.91,7.57,3.2,7.64,3,13.27-3.44,2.58-3,6-2.75,8.49.51.3.39.63.77,1,1.14,5.91,6.59,5.21,8-3.59,10.75-12.24,3.88-24.69,3.65-37.32,3.83-10.41.14-21.18-.41-31.24,4.11-1.59.72-4.46-1-6.58-2-6.36-2.83-12.38-6.87-19-8.53-10.23-2.57-20.28-5.53-30.36-8.55s-21.23-5.84-32-.73c-.4.2-.89.21.31-1.06,1.63,2.78,2.76,6.11,5,8.21,2.77,2.57,6.56,4,9.79,6.11,7.59,4.91,15.09,10,22.68,14.87a14.93,14.93,0,0,0,3.54,1.36c3.47,1.12,5.29,3.4,4.49,7.08-.66,3.09-3.44,3.8-5.93,1.84-3.72-2.92-7.42-5.89-11.3-8.58-3.3-2.29-7-4.05-10.27-6.33-5.34-3.7-10.16-8.33-15.86-11.31A97.13,97.13,0,0,1,1517,577.23c-1.74-1.68-6-1.09-9.08-1-8.36.29-16.72.67-25,1.45-3.59.33-7.06,2.27-10.63,2.42-2.45.1-5-1.62-7.47-2.53Z"/><path d="M1484.81,388.27c-1.81-2.34-3.21-5.22-5.49-6.93-14.15-10.61-21.72-26-30.22-40.77-1.33-2.28-1.35-5.43-1.59-8.21-1.41-16-2.67-32-4.09-48-.14-1.59-.53-3.55-1.56-4.6a54.35,54.35,0,0,1-14.14-26.8l-1.27.07L1424.17,268c-4.18,0-8.09.72-7,6.42-4.59.18-8.71.49-12.81.4a4,4,0,0,1-3-2.12,4.78,4.78,0,0,1,.56-4.05,11.14,11.14,0,0,1,4.64-2.65c5.92-2,7.32-3.82,7.37-10.29,0-5.88,6.86-16.26,12.14-18.21a5.87,5.87,0,0,1,7.69,2.86,32.09,32.09,0,0,1,3.67,9.15,56.91,56.91,0,0,0,10.92,24.21c5.62,7.39,5.37,16.45,6.35,25.14,1.06,9.4,2.28,18.78,3.41,28.17.18,1.47.65,3,.36,4.4-1.8,8.9,2.07,16,7.47,22.28,6.67,7.75,14.27,14.71,20.74,22.6a33.11,33.11,0,0,1,6.18,13.21c1.4,6-2.18,9.55-8.34,9.09-8.26-.62-15.81-2.49-21.13-10-4.45-6.33-5.35-5.24-12.05-1.68-5,2.64-11.31,3.31-17.13,3.76-16.53,1.26-32.36-4.63-48.75-5.34-10.48-.45-20.94-1.7-31.42-1.79-7.56-.07-15.15,1.06-22.7,1.91-3.07.34-6.31.35-6.85-2.92-.23-1.4,2.92-4.69,4.75-4.87,11-1.06,22-1.58,33-2a139,139,0,0,1,15.41.23c7.78.52,15.52,1.46,23.29,2.1a160.18,160.18,0,0,0,47-2.91,69.25,69.25,0,0,1,10.84-1.37c4.56-.23,7.85,1.77,9.9,6.09C1472.72,388.21,1475.21,389.71,1484.81,388.27Z"/><path d="M1519.75,486.33c2.45-12.58,4.89-23.85,6.76-35.22a138.85,138.85,0,0,0,1.78-20.35c.11-7.68-7-15.45-16.38-17.66-5.11-1.2-8.81-3.72-8.21-8.73.46-3.86,2.54-8.6,5.5-10.85,5.11-3.89,10-7.61,12.53-13.61,1-2.33,1.26-5,2.19-7.34a49.41,49.41,0,0,1,3.06-5.67l5.17,3a.65.65,0,0,1,.29.4c2.23,13.76,15.85,18.68,22.54,29a7.31,7.31,0,0,0,3.06,2.45c9.41,4.14,14.68,12.1,17.91,21.11,3.41,9.49,9.61,13.87,19.14,16.5,8.73,2.42,16.94,7.27,21,16.41.52,1.18.45,3.4-.32,4.17s-2.94,1.16-4.33.89a7.68,7.68,0,0,1-3.63-2.43,51.7,51.7,0,0,0-21.87-13.9c-9.4-3.12-13.16-11.37-17.21-19.36-1.4-2.75-3-5.78-5.28-7.59-4.42-3.44-9.6-2.57-10.66,3.78-1.08,6.52-2.32,13-3.62,19.5A45.14,45.14,0,0,1,1537.69,463c-6,6.47-10.29,13.73-9.52,23,.27,3.37-1.91,4.82-4.62,4.07C1521.89,489.66,1520.73,487.37,1519.75,486.33Z"/><path d="M1323.17,62.53l7.48,1.21c5,.83,10,1.86,15.11,2.43,4,.45,8,.09,12,.54,10.08,1.15,16.86,13.29,11.78,21.94-5.72,9.76-5,18,3,26.07,6.87,6.94,13.25,14.38,19.73,21.69,2.52,2.84,4.19,6.05,1.83,10.2-3.72-.59-6.14-.75-7.67-6.17s-7.31-10.12-11.89-14.4c-1.48-1.39-5.94-1.57-7.5-.35s-2.54,5.61-1.56,7.39c3.65,6.65.57,12.68-1,18.68-3.64,14.28-8.52,28.27-11.61,42.65-1.9,8.82-1.21,18.18-2.19,27.25-.24,2.21-2.46,4.21-3.77,6.3-1.65-1.55-4.6-3-4.75-4.68-.58-6.68-1.17-13.57-.15-20.13,2.51-16,6.39-31.87,8.75-47.92,1.08-7.35.34-15.07-.37-22.55-.69-7.25.25-13.72,4.59-19.73,1.31-1.81,2.47-4.46,2.21-6.54-.9-7.18-.21-13.78,3.48-20.22,2.79-4.86-1.49-11.35-7.19-11.73-7.57-.52-10.27,1.37-12.4,8.55-1.31,4.45-3.85,7.37-8.24,9.78-3.27,1.8-5.78,6.32-7,10.14-2.21,6.69-3.19,13.78-4.68,20.71-.35,1.62-.2,3.71-1.17,4.75-1.48,1.6-3.68,3.33-5.68,3.46-2.82.19-3.79-2.36-3.25-5,1.84-8.94,3.71-17.86,5.7-26.76,1.66-7.42,3.71-14.76,5.12-22.23a6.31,6.31,0,0,0-2.39-5.16c-8.89-5.71-8.17-14.55-6.57-23.17a4.69,4.69,0,0,1,3.31-3.05,4.63,4.63,0,0,1,3.51,2.78c.83,3.11.87,6.41,1.3,9.63.2,1.53.58,3,.87,4.57Z"/><path d="M1282.12,512c7-.71,11.49,1.69,14.87,6.54,2.79,4,1.63,8-2.53,10.49-6.37,3.77-12.15,8.56-18.61,12.16a31.48,31.48,0,0,0-13,13.68c-.67,1.3-1.18,2.68-2.32,5.3,4.49.63,8.38,1.49,12.31,1.64,3.75.14,7.62-1.08,11.26-.51,2.54.4,6.14,2.35,6.81,4.41.87,2.65.38,7.48-1.46,9-5,4-11.06,6.67-16.61,10-6.73,4.06-13.42,8.18-20,12.46-3.37,2.19-6.2,5.93-9.79,6.78-2.78.67-6.46-1.89-9.56-3.38-.85-.4-1.74-2.84-1.46-3.11,1.68-1.55,3.56-3.57,5.63-3.93,9.6-1.65,16.82-7.88,25-12.33,3.65-2,7.13-4.3,10.69-6.48a10.81,10.81,0,0,0,4.2-4.1c-4.3-.51-8.62-.94-12.91-1.55-7.33-1-12.69-4.53-12.27-9.66a16.45,16.45,0,0,1,2.51-7.67c6.38-9.23,14-17.31,23.7-23.18,3.45-2.09,7-4,10.49-6l-.66-2.45c-3.23.06-7.15-1-9.58.4-8.94,5.29-18.53,5.06-28.2,4.57-1.81-.09-4.79-1.47-5-2.67-.34-1.81.69-5,2.15-5.84a97.12,97.12,0,0,1,16.57-8.21c11.83-4.29,23.5-8.79,34.31-15.34a10.22,10.22,0,0,1,5.93-1.58c1.32.15,3.08,2,3.39,3.43.21.92-1.56,2.77-2.85,3.45-3.23,1.72-6.79,2.82-10,4.52-3.59,1.88-7,4.13-10.4,6.3C1284,509.47,1283.53,510.29,1282.12,512Z"/><path d="M1401.11,208.78c2.83,0,4.45,0,6.06.07,4.58.15,6.13,3.09,3.68,7a4.75,4.75,0,0,1-1.17,1.57c-8.16,5.1-9.15,13.89-11.64,22-2.79,9.13-5.77,18-11.79,26-3.27,4.32-3.42,11.06-4.71,16.77-.15.69,1.22,2.16,2.19,2.61,3.14,1.47,4.08,3.39,2.72,6.76-1.56,3.84-3.16,7.62-8,7.51-1.21,0-2.71-2.24-3.5-3.75-4.94-9.45-4.63-19.16-1-28.94,3.9-10.52,8.51-20.84,11.54-31.6,2.18-7.7,1.87-16.07,3.41-24,1.14-5.79,3.79-11.27,5.17-17,.73-3.06.24-6.43.2-9.65,0-1-.52-1.93-.55-2.9-.1-3-.55-6.65,3.3-7.34s4,3,5,5.56a71.85,71.85,0,0,0,4.39,10c2.28,4,2.2,7.35-.56,11C1404.17,202.67,1403,205.38,1401.11,208.78Z"/><path d="M1240.77,737.38c.24-8.13,3.83-12.53,9.41-16.36,8.64-5.92,12.15-15.15,14.31-25.08a22.32,22.32,0,0,1,4.18-9.47c2-2.38,5.12-2.07,6.54,1.61.83,2.17,1.79,4.3,2.41,6.53,1.1,4,2.43,7,7.44,8.06,5.32,1.09,8,7.39,6.43,12.92-1.48,5.21-1,9.51,3.38,13.41,2.78,2.51,6.23,5,5.22,10-.75,3.67-3.06,5.31-5.93,4-3.08-1.45-7.07-2.29-7.63-7.31-.54-4.84-3.21-5.66-7.63-3.37-.43.22-.76.64-1.19.89-7.35,4.29-10.26,3.59-15.21-3.31-.93-1.3-2.87-3.25-3.69-3a7.3,7.3,0,0,0-3.84,3.83c-1.51,3.64-2.27,7.58-3.71,11.26-1,2.5-1.87,5.42-6,4.3-3.66-1-4.33-3.65-4.64-6.69A8.38,8.38,0,0,1,1240.77,737.38Z"/><path d="M653.8,750.23c6.12-1.09,12.25-2.09,18.35-3.31,6.29-1.26,12.59-2.54,18.78-4.21a23.36,23.36,0,0,0,7.38-3.77,5,5,0,0,0,1.4-4c-1.21-9.35,1.37-12.05,10.68-12.82,9.6-.8,18.51-4.15,26.9-9.09,3.37-2,7.49-2.69,11.22-4.08,2.58-1,5-2.34,7.65-3.09,1.51-.44,3.27,0,4.92,0-.7,1.53-1,3.76-2.18,4.46-5.81,3.41-11.8,6.53-17.84,9.54-5.68,2.83-11.88,4.8-17.15,8.23s-10,8-14.54,12.56c-7.22,7.27-15.49,11.7-25.86,12.66-12.9,1.2-25.77,2.86-38.58,4.8-5,.77-9.87,3-14.87,4.28-3.51.9-7.23,1.06-10.7,2.07-2.27.65-4.2,2.39-6.41,3.33-3.48,1.48-6.45.18-7.65-3.09-.31-.85,2.52-3.34,4.31-4.4,10.83-6.37,22.82-9.3,35.12-11.07a87.1,87.1,0,0,1,8.87-.36C653.67,749.36,653.73,749.8,653.8,750.23Z"/><path d="M1836.41,668.69c.09-3.72-2.43-4.75-5.3-6.46-14.74-8.81-32-7.91-47.61-13a74.64,74.64,0,0,1-17.34-8.39,132.49,132.49,0,0,1-19.81-15.18c-7.08-6.77-13.3-14.46-19.53-22.05-.82-1,0-4,1-5.54.42-.65,3.77-.45,4.69.47,3.1,3.07,5.56,6.77,8.53,10,3.41,3.71,7.14,7.15,10.66,10.77.87.9,2.12,2,2.12,3.08,0,7.59,6.89,7.76,11.24,10.54,4.18,2.66,9.74,4,12.7,7.55,5,6.08,11.28,6.81,17.84,6.19a59.54,59.54,0,0,1,31.19,5.2,8.34,8.34,0,0,0,5.51.6c5-1.62,8,.22,9,5.21a10,10,0,0,0,4.13,5.53c5.82,3.88,11.9,7.38,18,10.9,2.48,1.44,5.63,2.89,3.87,6.17-2.18,4.05-5.27,1.41-8,0-7.64-4-15.32-7.85-23-11.77Z"/><path d="M338.44,796.79c-7.17-3.75-9.73,2.93-14,5.41-9.23,5.42-18.14,11.79-29.72,9.94-1.57-.25-2.94-1.81-4.4-2.77,1.17-1.31,2.1-3.21,3.57-3.82,3.57-1.48,7.57-2,11.06-3.58,6.53-3,13.27-5,18.27-11.63,4.46-5.88,11.59-10.48,18.46-13.61,8.24-3.76,17.6-4.09,26.63-2,1,.23,2.35,3.77,1.8,4.53a28.83,28.83,0,0,1-7,7.06,85.83,85.83,0,0,1-13.72,7.75C345.88,795.62,341.88,796,338.44,796.79Z"/><path d="M1303.39,274.5c3.48-.77,7-1.56,10.44-2.32,1.44-.32,3-1,4.31-.81,8.45,1.47,16-1.42,23.65-4.32A109.28,109.28,0,0,1,1353,263c2.67-.69,6.24-.92,6.77,2.84.21,1.47-2.22,3.27-3.35,5a53.12,53.12,0,0,0-4.65,7.54c-2.34,5.39-3.24,11.74-9.08,14.77-2.16,1.11-5,1.15-7.49,1.29-1.59.09-3.24-.85-4.84-.79-6.73.26-11.51-3-14.83-8.41-2.24-3.63-5.1-4.11-8.88-3.51-2.54.4-5.41.75-7.7-.07s-3.72-3.1-5.54-4.75a65,65,0,0,1,6.37-3.4c1-.4,2.29.06,3.46.14C1303.26,273.89,1303.33,274.2,1303.39,274.5ZM1343,278l-1.19-1.19-15.89,4.67c3.53,4,8,3.57,11.65,2.57C1339.77,283.49,1341.23,280.15,1343,278Z"/><path d="M1319.94,674.58c-6.59-5.53-14.39-5.36-22.31-5.64-2.42-.09-7-4.6-6.6-5.83,1.07-3.39,3.62-7.52,6.69-8.88,13.87-6.12,28.21-11.19,42.17-17.14,2.95-1.26,5.28-1.55,5.79,1.25.35,1.87-1.52,5.29-3.32,6.2-5.78,2.9-12.07,4.77-18,7.41a18.62,18.62,0,0,0-7.12,5c-2.11,2.72.74,4,2.9,4.73,3.11,1,6.4,1.37,9.48,2.39,1.4.47,3.24,1.67,3.52,2.86a4.53,4.53,0,0,1-2.07,3.86A111,111,0,0,1,1319.94,674.58Z"/><path d="M272.64,845.86c-2.22-1.16-4-2-5.61-3-3.22-1.88-5.88-2.15-9.53.07-3.05,1.86-7.4,2.25-11.16,2.18-7-.13-12.8,2.62-18.64,6a19.34,19.34,0,0,1-8.76,2.13c-2.59.1-3.4-3.86-.69-5.53a119.13,119.13,0,0,1,16.43-8.27c9.21-3.89,19-1.26,28.47-1.88,7.75-.51,15.45-1.62,23.18-2.29,3.27-.28,6.57-.21,9.86-.17,3.72,0,5.91,2.67,5.41,5.7-.39,2.38-2.72,5.53-4.91,6.3-5.3,1.85-11,2.57-16.57,3.64S273.35,850.86,272.64,845.86Z"/><path d="M1248.81,465c-8.36-1-15.39,2-21.77,7.22-5,4.05-10.15,7.86-15.35,11.63-2.52,1.83-5.54,2.35-7.37-.66s.42-4.62,2.84-6.25c7.53-5.08,14.67-10.77,22.43-15.44,3.86-2.32,8.75-4.12,13.16-4.08,10.5.08,19.15-3.77,27.17-9.92,3.14-2.4,6.15-5,9.55-7,1.65-.93,4.08-.48,6.15-.65-.44,2.11-.22,4.79-1.46,6.21a47.06,47.06,0,0,1-9.65,8.62,149.4,149.4,0,0,1-17.87,10C1254.46,465.74,1251.45,465,1248.81,465Z"/><path d="M1836.28,668.54c.07,11.6,6.52,18.49,18.15,19.09,5.69.29,11.49,1.86,17-1.32.83-.48,3.36.86,4.2,2,.47.65-.55,3.48-1.51,3.88-3.4,1.42-7,3-10.62,3.11-8.93.25-17.88-.45-26.81-.38-2.07,0-4.13,1.56-6.18,2.43-2.25,1-3.88,4.85-7.07,1.24-2.76-3.12-2.58-6.23-.43-9.4,1.28-1.89,3.26-3.4,4.16-5.42,1.24-2.78,2.44-5.88,2.44-8.85,0-6.5.19-7,6.75-6.25Z"/><path d="M1262.28,112c-5-3.6-5.52-5.61-1.85-9.34,8.74-8.89,12.25-19.34,12.73-31.81.18-4.71,5-9.75,8.72-13.62,2.32-2.4,6.38-.69,7.95,2.38.72,1.4-.13,5.07-1.34,5.72-5.14,2.78-5.7,7.69-6.28,12.33-1.31,10.53-6.48,19-13.18,26.73C1266.8,107,1264.51,109.53,1262.28,112Z"/><path d="M1279.81,195c-2.51-1.34-6.71-2.5-9.3-5.2-3.72-3.88-6.58-8.71-9.12-13.49-.67-1.26,1.17-3.85,1.85-5.83,1.5.9,3.38,1.5,4.43,2.78,2.19,2.68,3.66,6,5.92,8.57,5.07,5.83,12.19,5,15.87-1.79,1.69-3.11,3.53-5.73,7.25-3.47s2.91,5.47.66,8.49C1293.25,190.53,1288.29,194.68,1279.81,195Z"/><path d="M1305.84,86.86c-2.84,8.3-5.43,16.71-8.69,24.85-.94,2.32-3.85,3.85-5.86,5.74-.82-3-1.79-5.9-2.38-8.92-.19-1,.63-2.18.95-3.29,2.3-8.06,4.7-16.09,6.81-24.2.77-3,1.9-6.16,5.06-5.29,1.62.44,2.47,4.31,3.27,6.76.37,1.16-.19,2.61-.33,3.93Z"/><path d="M197.76,860.27c-6-.37-8.45-4.16-6.75-8.39,1.09-2.74,1.69-5.82,3.35-8.15a15.31,15.31,0,0,1,6.3-4.76c2.2-.94,4.83-1,6.24,2.11,1,2.3,4.16,5.68,3.61,6.37C206.53,852.41,207,862.69,197.76,860.27Z"/><path d="M1398.55,357.45c-8.71-4.37-17.24-8.59-25.7-12.94-2.54-1.31-5.29-3.1-3.58-6.5,1.81-3.63,4.75-2.58,7.6-1,5.87,3.3,11.82,6.45,17.67,9.78C1398.49,349.06,1400.28,353.93,1398.55,357.45Z"/><path d="M1432.81,233c-.88.65-2.47,2.65-4.41,3.08-3,.66-5.51-3.57-4.62-8.36.36-2,2.32-4.57,4.1-5.11C1430.82,221.75,1433.15,226.13,1432.81,233Z"/><path d="M1262.72,47c-1.58-1.92-3.68-3.37-3.55-4.61s2.95-3.86,3.42-3.62c1.94,1,3.44,2.89,5.09,4.45Z"/><path class="cls-1" d="M718.78,631.06c-4,.35-6.44-1.53-7.1-5.31-.46-2.62,4-7.31,7.34-7.58s4.75-2.24,6.85-4.56c2.45-2.72,6.82-5.11,10.38-5.14,8.22-.06,13.55-4.61,19-9.48a53.47,53.47,0,0,0,4.63-4.11,93.49,93.49,0,0,0,8.41-10.18c2.58-3.88,9.88-6.06,13.34-3.14,2.7,2.29,2.91,5.75.36,7.82-8.58,7-12.23,17.16-17.76,26.12-1.89,3.06-4,4.83-8.13,5.18-5.18.43-10.22,2.72-15.26,4.37-7.25,2.38-14.45,4.9-21.67,7.36C719.06,632,718.92,631.51,718.78,631.06Z"/><path class="cls-1" d="M566.33,714.14c-7,5.82-14,11.76-21.15,17.39a52.33,52.33,0,0,1-9.37,5.53c-7.45,3.65-13.83,9.53-22.5,10.69-4,.54-7.89,1.54-12.43,1.25,2.57-1.88,4.89-4.36,7.74-5.53,10.55-4.34,17.87-12.31,24.35-21.13,2-2.72,3.94-3.22,7-3.29,3.28-.08,6.57-1.06,9.81-1.8,5.46-1.25,10.89-2.62,16.33-3.94Z"/><path class="cls-1" d="M563.07,756c3.26-15.45,15-24,34.72-22.1-1.7,4.17-9.86,10.78-15.62,10.64-8.15-.21-12.65,4.3-17,9.86A11.53,11.53,0,0,1,563.07,756Z"/><path class="cls-1" d="M819.87,566.27c-.16-3.56.44-5.27,4.25-6a48.84,48.84,0,0,0,13.53-5.18c3.2-1.73,5.69-4.74,8.58-7.08,1.85-1.5,3.86-2.82,6.68-4.86C848.7,558.07,840.79,562.69,819.87,566.27Z"/><path class="cls-1" d="M838,631.34c2.43-9.32,9.75-12.45,15.77-16.73,1.47-1.05,4.26-1.09,6.07-.48,1.23.41,2.05,2.7,2.53,4.3.16.56-1.08,1.88-2,2.34q-8.16,4.37-16.45,8.44A56.89,56.89,0,0,1,838,631.34Z"/><path class="cls-1" d="M888,512.39c1.61-2.39,2.31-4.31,3.68-5.3,5.83-4.21,11.82-8.21,17.85-12.12,1.33-.86,3.09-1.06,4.64-1.56-.35,1.53-.31,3.31-1.12,4.55-5.08,7.8-12.77,11.94-21.39,14.63C891.12,512.77,890.41,512.54,888,512.39Z"/><path class="cls-1" d="M423.53,810c-.3,5.87-5,6.55-8.34,8.43a6.93,6.93,0,0,1-5.17.62c-1.47-.55-3.51-2.57-3.41-3.81.39-5.08,11.19-9.72,15.7-6.95A4.44,4.44,0,0,1,423.53,810Z"/><path class="cls-1" d="M906.47,478c1.9-8.08,2.43-8.32,10.62-6.38Z"/><path class="cls-1" d="M1343,278c-1.78,2.11-3.24,5.45-5.43,6-3.67,1-8.12,1.46-11.65-2.57l15.89-4.67Z"/></g><g id="Pfadi_St.Justus_Flums" data-name="Pfadi St.Justus Flums"><text class="cls-2" transform="translate(607.33 892.08)">Pfadi St. Justus Flums</text></g></svg>