<svg width="587" height="920" viewBox="0 0 587 920" fill="none" xmlns="http://www.w3.org/2000/svg">
<path d="M494.345 4.6477C576.625 24.345 647.753 113.679 684.195 202.789C720.884 292.448 722.886 381.884 709.447 454.527C696.254 527.72 668.372 584.441 656.266 677.585C643.655 770.956 647.326 900.524 601.682 917.758C556.789 935.314 462.581 840.536 376.49 796.177C290.152 751.271 211.93 756.783 172.031 719.341C131.627 682.126 130.555 601.503 93.9226 505.225C57.537 409.495 -13.6577 298.432 2.29361 225.977C17.9982 152.974 121.353 118.353 220.246 76.5074C318.387 34.3409 411.818 -15.598 494.345 4.6477Z" fill="#EAC04A"/>
</svg>
