<svg width="705" height="859" viewBox="0 0 705 859" fill="none" xmlns="http://www.w3.org/2000/svg">
<path d="M495.002 3.30629C575.678 19.4386 643.376 101.145 676.835 183.623C710.521 266.607 709.969 350.364 694.647 418.821C679.552 487.785 650.42 541.728 635.834 629.359C620.744 717.217 620.704 838.535 575.153 855.977C530.335 873.698 440.005 787.543 356.263 748.408C272.293 708.765 194.91 716.143 156.578 682.184C117.74 648.451 118.962 572.927 85.5179 483.737C52.3021 395.054 -14.8463 292.986 2.95094 224.635C20.5202 155.778 123.54 120.41 222.357 78.3994C320.442 36.1085 414.098 -13.333 495.002 3.30629Z" fill="#EAC04A"/>
</svg>
